<svg xmlns="http://www.w3.org/2000/svg" width="18" height="18" fill="none">
  <path fill="#FBFBFB" d="M16.359.177h-2.256c-.695 0-1.26.552-1.26 1.234v2.21c0 .683.565 1.236 1.26 1.236h2.256c.696 0 1.26-.553 1.26-1.235v-2.21c0-.683-.564-1.235-1.26-1.235ZM3.786 12.96H1.357c-.75 0-1.357.553-1.357 1.235v2.21c0 .682.608 1.235 1.357 1.235h2.429c.75 0 1.357-.553 1.357-1.235v-2.21c0-.682-.608-1.235-1.357-1.235Zm-.271-6.445H1.26C.564 6.515 0 7.068 0 7.75v2.21c0 .682.564 1.235 1.26 1.235h2.255c.696 0 1.26-.553 1.26-1.235V7.75c0-.682-.564-1.235-1.26-1.235Zm6.478 6.41H7.738c-.696 0-1.26.553-1.26 1.235v2.21c0 .682.564 1.235 1.26 1.235h2.255c.696 0 1.26-.553 1.26-1.235v-2.21c0-.682-.564-1.235-1.26-1.235ZM3.515.049H1.26C.564.049 0 .6 0 1.283v2.21C0 4.177.564 4.73 1.26 4.73h2.255c.696 0 1.26-.553 1.26-1.235v-2.21A1.246 1.246 0 0 0 3.516.048Zm6.653 6.531H7.912c-.696 0-1.26.553-1.26 1.235v2.21c0 .682.565 1.235 1.26 1.235h2.256c.696 0 1.26-.553 1.26-1.235v-2.21c0-.682-.564-1.235-1.26-1.235Zm6.332 6.345h-2.255c-.696 0-1.26.553-1.26 1.235v2.21c0 .682.564 1.235 1.26 1.235H16.5c.696 0 1.26-.553 1.26-1.235v-2.21c0-.682-.564-1.235-1.26-1.235ZM9.895.126H7.639c-.696 0-1.26.553-1.26 1.235v2.21c0 .682.565 1.235 1.26 1.235h2.256c.696 0 1.26-.553 1.26-1.235V1.36c0-.682-.564-1.235-1.26-1.235Zm6.442 6.582h-2.255c-.696 0-1.26.553-1.26 1.235v2.21c0 .682.564 1.235 1.26 1.235h2.255c.696 0 1.26-.553 1.26-1.235v-2.21c0-.682-.564-1.235-1.26-1.235Z"/>
</svg>